<?xml version="1.0" ?><!DOCTYPE svg  PUBLIC '-//W3C//DTD SVG 1.1//EN'  'http://www.w3.org/Graphics/SVG/1.1/DTD/svg11.dtd'><svg width="16" height="16" id="Layer_1" class="bi"  version="1.1" viewBox="0 0 75 75" xml:space="preserve" xmlns="http://www.w3.org/2000/svg" xmlns:xlink="http://www.w3.org/1999/xlink"><style type="text/css">
	.st0{fill:#EC008C;}
	.st1{fill:#000000;}
	.st2{fill:#00AAAD;}
	.st3{fill:#9ffaa3;}
	.st4{fill:#B2D235;}
</style><g><g><path class="st3" d="M62.5,73.5h-50c-6.1,0-11-4.9-11-11v-50c0-6.1,4.9-11,11-11h50c6.1,0,11,4.9,11,11v50    C73.5,68.6,68.6,73.5,62.5,73.5z"/></g><g><path class="st1" d="M48.2,44.3c0.8,0,1.5-0.6,2.1-1.9c0.6-1.3,0.9-2.8,0.9-4.8c0-4.1-1.2-7.6-3.6-10.3c-2.4-2.7-5.6-4.1-9.6-4.1    c-4,0-7.4,1.4-10.1,4.3s-4.1,6.3-4.1,10.2s1.3,7.3,3.9,9.9c2.6,2.6,5.7,4,9.5,4c3,0,5.6-1.1,7.8-3.3l1.8,3.1    c-1.2,1-2.7,1.9-4.5,2.5c-1.8,0.6-3.5,0.9-5.2,0.9c-4.9,0-9-1.6-12.3-4.9c-3.3-3.3-5-7.4-5-12.3s1.7-9.1,5.2-12.6    c3.5-3.5,7.7-5.2,12.6-5.2s9,1.7,12.3,5c3.3,3.3,4.9,7.5,4.9,12.5c0,3.2-0.7,5.8-2,7.8c-1.3,2-3.1,2.9-5.3,2.9    c-1.1,0-2.1-0.3-3.1-1c-0.9-0.7-1.6-1.5-1.9-2.6c-1.6,2.1-3.7,3.1-6.1,3.1c-2.5,0-4.6-0.9-6.5-2.8c-1.8-1.9-2.8-4.3-2.8-7.2    s0.8-5.3,2.5-7.3c1.7-2,3.8-3,6.5-3c0.9,0,1.8,0.2,2.6,0.6c0.8,0.4,1.4,0.8,1.8,1.2l0.6,0.6v-1.8h5.5v14    C46.9,43.6,47.3,44.3,48.2,44.3z M41.4,37.7c0-1.5-0.4-2.7-1.2-3.7c-0.8-1-1.8-1.5-3.1-1.5c-1.3,0-2.3,0.5-3,1.5    c-0.7,1-1.1,2.2-1.1,3.6c0,1.4,0.4,2.7,1.1,3.7c0.7,1.1,1.8,1.6,3.1,1.6s2.3-0.5,3.1-1.5C41,40.4,41.4,39.1,41.4,37.7z"/></g></g></svg>

